<svg width="51" height="30" viewBox="0 0 51 30" fill="none" xmlns="http://www.w3.org/2000/svg">
<path d="M42.0391 28.6547L8.96042 28.6547C4.81828 28.6547 1.46041 25.2969 1.46041 21.1547L1.46041 8.46356C1.46041 4.32142 4.81828 0.963558 8.96041 0.963558L42.0391 0.963561C46.1812 0.963562 49.5391 4.32143 49.5391 8.46356L49.5391 21.1547C49.5391 25.2969 46.1812 28.6547 42.0391 28.6547Z" fill="#010C15"/>
<path d="M25.5 17.8091L21.25 11.8091L29.75 11.8091L25.5 17.8091Z" fill="white"/>
<path d="M42.0391 28.6547L8.96042 28.6547C4.81828 28.6547 1.46041 25.2969 1.46041 21.1547L1.46041 8.46356C1.46041 4.32142 4.81828 0.963558 8.96041 0.963558L42.0391 0.963561C46.1812 0.963562 49.5391 4.32143 49.5391 8.46356L49.5391 21.1547C49.5391 25.2969 46.1812 28.6547 42.0391 28.6547Z" stroke="#1E2D3D"/>
</svg>
