<svg width="25" height="25" viewBox="0 0 25 25" fill="none" xmlns="http://www.w3.org/2000/svg">
<g clip-path="url(#clip0_2807_730)">
<path d="M12.9766 2.27832C7.45156 2.27832 2.97656 6.75332 2.97656 12.2783C2.97543 14.3776 3.63538 16.4239 4.86278 18.127C6.09018 19.8301 7.82271 21.1034 9.81456 21.7663C10.3146 21.8533 10.5016 21.5533 10.5016 21.2903C10.5016 21.0533 10.4886 20.2663 10.4886 19.4283C7.97656 19.8913 7.32656 18.8163 7.12656 18.2533C7.01356 17.9653 6.52656 17.0783 6.10156 16.8403C5.75156 16.6533 5.25156 16.1903 6.08856 16.1783C6.87656 16.1653 7.43856 16.9033 7.62656 17.2033C8.52656 18.7153 9.96456 18.2903 10.5386 18.0283C10.6266 17.3783 10.8886 16.9413 11.1766 16.6913C8.95156 16.4413 6.62656 15.5783 6.62656 11.7533C6.62656 10.6653 7.01356 9.76632 7.65156 9.06532C7.55156 8.81532 7.20156 7.79032 7.75156 6.41532C7.75156 6.41532 8.58856 6.15332 10.5016 7.44132C11.3156 7.21538 12.1567 7.10166 13.0016 7.10332C13.8516 7.10332 14.7016 7.21532 15.5016 7.44032C17.4136 6.14032 18.2516 6.41632 18.2516 6.41632C18.8016 7.79132 18.4516 8.81632 18.3516 9.06632C18.9886 9.76632 19.3766 10.6533 19.3766 11.7533C19.3766 15.5913 17.0396 16.4413 14.8146 16.6913C15.1766 17.0033 15.4896 17.6033 15.4896 18.5413C15.4896 19.8783 15.4766 20.9533 15.4766 21.2913C15.4766 21.5533 15.6646 21.8653 16.1646 21.7653C18.1496 21.0951 19.8745 19.8193 21.0965 18.1175C22.3184 16.4156 22.976 14.3734 22.9766 12.2783C22.9766 6.75332 18.5016 2.27832 12.9766 2.27832Z" fill="#607B96"/>
</g>
<defs>
<clipPath id="clip0_2807_730">
<rect width="24" height="24" fill="white" transform="translate(0.976562 0.27832)"/>
</clipPath>
</defs>
</svg>
