<svg width="29" height="29" viewBox="0 0 29 29" fill="none" xmlns="http://www.w3.org/2000/svg">
<rect x="0.652344" y="0.695801" width="28" height="28" rx="2" fill="#86E1F9"/>
<g clip-path="url(#clip0_2807_43)">
<path d="M14.6523 15.9733C14.3134 15.9733 13.9884 15.8387 13.7488 15.5991C13.5092 15.3595 13.3746 15.0345 13.3746 14.6957C13.3746 14.3568 13.5092 14.0318 13.7488 13.7922C13.9884 13.5526 14.3134 13.418 14.6523 13.418C14.9911 13.418 15.3161 13.5526 15.5557 13.7922C15.7953 14.0318 15.9299 14.3568 15.9299 14.6957C15.9299 15.0345 15.7953 15.3595 15.5557 15.5991C15.3161 15.8387 14.9911 15.9733 14.6523 15.9733ZM14.2025 18.5234C14.3516 18.7022 14.5015 18.876 14.6523 19.0421C14.803 18.876 14.9529 18.7031 15.102 18.5234C14.8022 18.5297 14.5023 18.5297 14.2025 18.5234ZM12.5033 18.4169C11.8492 18.3488 11.1995 18.2442 10.5571 18.1035C10.4932 18.4016 10.4447 18.6912 10.4123 18.9688C10.2505 20.3171 10.4762 21.1365 10.8194 21.3341C11.1627 21.5326 11.9846 21.3179 13.0723 20.5045C13.2963 20.3367 13.522 20.1502 13.7486 19.9466C13.3052 19.4604 12.8895 18.9497 12.5033 18.4169ZM18.7474 18.1035C18.1367 18.2397 17.4843 18.3454 16.8012 18.4169C16.415 18.9497 15.9993 19.4604 15.5559 19.9466C15.7825 20.151 16.0082 20.3367 16.2322 20.5045C17.3199 21.3179 18.1418 21.5326 18.4851 21.3341C18.8283 21.1365 19.0532 20.3171 18.8931 18.9688C18.8579 18.6783 18.8096 18.3896 18.7483 18.1035H18.7474ZM19.9824 17.7738C20.4739 20.0216 20.2158 21.8111 19.1239 22.4414C18.032 23.0717 16.3532 22.4005 14.6523 20.8512C12.9513 22.4005 11.2725 23.0708 10.1806 22.4405C9.08869 21.8102 8.83061 20.0216 9.32121 17.773C7.12883 17.0754 5.70898 15.9562 5.70898 14.6957C5.70898 13.4351 7.12883 12.3167 9.32121 11.6175C8.83061 9.36972 9.08869 7.58022 10.1806 6.94993C11.2725 6.31964 12.9513 6.99081 14.6523 8.54013C16.3532 6.99081 18.032 6.32049 19.1239 6.95078C20.2158 7.58107 20.4739 9.36972 19.9833 11.6183C22.1757 12.3159 23.5955 13.4351 23.5955 14.6957C23.5955 15.9562 22.1757 17.0746 19.9833 17.7738H19.9824ZM13.7477 9.44468C13.5311 9.24861 13.3057 9.06246 13.0723 8.88679C11.9846 8.07337 11.1627 7.85874 10.8194 8.05719C10.4762 8.25479 10.2513 9.07417 10.4114 10.4225C10.4455 10.701 10.4932 10.9897 10.5562 11.2878C11.1989 11.1471 11.8489 11.0424 12.5033 10.9744C12.9079 10.4182 13.3252 9.90632 13.7486 9.44468H13.7477ZM16.8012 10.9744C17.4843 11.0459 18.1367 11.1524 18.7474 11.2878C18.8113 10.9897 18.8598 10.7001 18.8922 10.4225C19.054 9.07417 18.8283 8.25479 18.4851 8.05719C18.1418 7.85874 17.3199 8.07337 16.2322 8.88679C15.9985 9.06244 15.7728 9.24859 15.5559 9.44468C15.9793 9.90632 16.3966 10.4182 16.8012 10.9744ZM15.102 10.8679C14.9529 10.6891 14.803 10.5153 14.6523 10.3492C14.5015 10.5153 14.3516 10.6882 14.2025 10.8679C14.5023 10.8616 14.8022 10.8616 15.102 10.8679ZM11.5621 16.9988C11.4067 16.7425 11.2568 16.4829 11.1124 16.2203C11.0315 16.4392 10.9566 16.6547 10.8884 16.8684C11.1073 16.9161 11.3322 16.9596 11.5613 16.9988H11.5621ZM13.2077 17.1981C14.1694 17.2695 15.1351 17.2695 16.0968 17.1981C16.6395 16.4008 17.1224 15.5644 17.5414 14.6957C17.1224 13.8269 16.6395 12.9905 16.0968 12.1932C15.1351 12.1218 14.1694 12.1218 13.2077 12.1932C12.665 12.9905 12.1821 13.8269 11.7632 14.6957C12.1821 15.5644 12.665 16.4008 13.2077 17.1981ZM18.1921 13.171C18.273 12.9521 18.348 12.7367 18.4161 12.5229C18.1928 12.4744 17.9685 12.431 17.7432 12.3925C17.8983 12.6488 18.048 12.9084 18.1921 13.171ZM9.65254 12.8533C9.36295 12.947 9.08869 13.0492 8.83146 13.16C7.58366 13.6949 6.98659 14.2996 6.98659 14.6957C6.98659 15.0917 7.58281 15.6964 8.83146 16.2313C9.08869 16.3421 9.36295 16.4443 9.65254 16.538C9.84163 15.9417 10.0759 15.3234 10.3552 14.6957C10.0868 14.0952 9.85218 13.4801 9.65254 12.8533ZM10.8876 12.5229C10.9566 12.7358 11.0315 12.9521 11.1124 13.1702C11.2568 12.9078 11.4068 12.6486 11.5621 12.3925C11.3322 12.4317 11.1073 12.4752 10.8884 12.5229H10.8876ZM19.652 16.538C19.9416 16.4443 20.2158 16.3421 20.473 16.2313C21.7208 15.6964 22.3179 15.0917 22.3179 14.6957C22.3179 14.2996 21.7217 13.6949 20.473 13.16C20.2041 13.0454 19.9302 12.9431 19.652 12.8533C19.4629 13.4496 19.2287 14.0679 18.9493 14.6957C19.2287 15.3234 19.4629 15.9409 19.652 16.538ZM18.4169 16.8684C18.348 16.6555 18.273 16.4392 18.1921 16.2211C18.0477 16.4835 17.8977 16.7428 17.7424 16.9988C17.9723 16.9596 18.1972 16.9161 18.4161 16.8684H18.4169Z" fill="#011221"/>
</g>
<defs>
<clipPath id="clip0_2807_43">
<rect width="20.4418" height="20.4418" fill="white" transform="translate(4.43164 4.47485)"/>
</clipPath>
</defs>
</svg>
