<svg width="50" height="30" viewBox="0 0 50 30" fill="none" xmlns="http://www.w3.org/2000/svg">
<path d="M41.5781 28.6547L8.49948 28.6547C4.35735 28.6547 0.999474 25.2969 0.999474 21.1547L0.999475 8.46356C0.999476 4.32142 4.35734 0.963558 8.49948 0.963558L41.5781 0.963561C45.7203 0.963562 49.0781 4.32143 49.0781 8.46356L49.0781 21.1547C49.0781 25.2969 45.7203 28.6547 41.5781 28.6547Z" fill="#010C15"/>
<path d="M22.0391 14.8091L28.0391 10.5591L28.0391 19.0592L22.0391 14.8091Z" fill="white"/>
<path d="M41.5781 28.6547L8.49948 28.6547C4.35735 28.6547 0.999474 25.2969 0.999474 21.1547L0.999475 8.46356C0.999476 4.32142 4.35734 0.963558 8.49948 0.963558L41.5781 0.963561C45.7203 0.963562 49.0781 4.32143 49.0781 8.46356L49.0781 21.1547C49.0781 25.2969 45.7203 28.6547 41.5781 28.6547Z" stroke="#1E2D3D"/>
</svg>
