<svg width="50" height="30" viewBox="0 0 50 30" fill="none" xmlns="http://www.w3.org/2000/svg">
<path d="M41.5786 28.6547L8.49997 28.6547C4.35783 28.6547 0.999962 25.2969 0.999963 21.1547L0.999964 8.46356C0.999964 4.32142 4.35783 0.963558 8.49996 0.963558L41.5786 0.963561C45.7207 0.963562 49.0786 4.32143 49.0786 8.46356L49.0786 21.1547C49.0786 25.2969 45.7207 28.6547 41.5786 28.6547Z" fill="#010C15"/>
<path d="M22.0391 14.8091L28.0391 10.5591L28.0391 19.0592L22.0391 14.8091Z" fill="white"/>
<path d="M41.5786 28.6547L8.49997 28.6547C4.35783 28.6547 0.999962 25.2969 0.999963 21.1547L0.999964 8.46356C0.999964 4.32142 4.35783 0.963558 8.49996 0.963558L41.5786 0.963561C45.7207 0.963562 49.0786 4.32143 49.0786 8.46356L49.0786 21.1547C49.0786 25.2969 45.7207 28.6547 41.5786 28.6547Z" stroke="#1E2D3D"/>
</svg>
