<svg width="50" height="30" viewBox="0 0 50 30" fill="none" xmlns="http://www.w3.org/2000/svg">
<path d="M41.5 28.6547L8.42136 28.6547C4.27922 28.6547 0.921349 25.2969 0.921349 21.1547L0.92135 8.46356C0.921351 4.32142 4.27922 0.963558 8.42135 0.963558L41.5 0.963561C45.6421 0.963562 49 4.32143 49 8.46356L49 21.1547C49 25.2969 45.6421 28.6547 41.5 28.6547Z" fill="#010C15"/>
<path d="M27.9609 14.8091L21.9609 19.0592L21.9609 10.5591L27.9609 14.8091Z" fill="white"/>
<path d="M41.5 28.6547L8.42136 28.6547C4.27922 28.6547 0.921349 25.2969 0.921349 21.1547L0.92135 8.46356C0.921351 4.32142 4.27922 0.963558 8.42135 0.963558L41.5 0.963561C45.6421 0.963562 49 4.32143 49 8.46356L49 21.1547C49 25.2969 45.6421 28.6547 41.5 28.6547Z" stroke="#1E2D3D"/>
</svg>
