<svg width="25" height="25" viewBox="0 0 25 25" fill="none" xmlns="http://www.w3.org/2000/svg">
<g clip-path="url(#clip0_31_124)">
<path d="M12.1592 13.755C11.7614 13.755 11.3798 13.597 11.0985 13.3157C10.8172 13.0344 10.6592 12.6528 10.6592 12.255C10.6592 11.8572 10.8172 11.4756 11.0985 11.1943C11.3798 10.913 11.7614 10.755 12.1592 10.755C12.557 10.755 12.9385 10.913 13.2198 11.1943C13.5011 11.4756 13.6592 11.8572 13.6592 12.255C13.6592 12.6528 13.5011 13.0344 13.2198 13.3157C12.9385 13.597 12.557 13.755 12.1592 13.755ZM11.6312 16.749C11.8062 16.959 11.9822 17.163 12.1592 17.358C12.3362 17.163 12.5122 16.96 12.6872 16.749C12.3352 16.7565 11.9831 16.7565 11.6312 16.749ZM9.63618 16.624C8.86824 16.5441 8.10538 16.4212 7.35118 16.256C7.27618 16.606 7.21918 16.946 7.18118 17.272C6.99118 18.855 7.25618 19.817 7.65918 20.049C8.06218 20.282 9.02718 20.03 10.3042 19.075C10.5672 18.878 10.8322 18.659 11.0982 18.42C10.5777 17.8491 10.0896 17.2495 9.63618 16.624ZM16.9672 16.256C16.2502 16.416 15.4842 16.54 14.6822 16.624C14.2288 17.2495 13.7407 17.8491 13.2202 18.42C13.4862 18.66 13.7512 18.878 14.0142 19.075C15.2912 20.03 16.2562 20.282 16.6592 20.049C17.0622 19.817 17.3262 18.855 17.1382 17.272C17.0969 16.9309 17.0402 16.5919 16.9682 16.256H16.9672ZM18.4172 15.869C18.9942 18.508 18.6912 20.609 17.4092 21.349C16.1272 22.089 14.1562 21.301 12.1592 19.482C10.1622 21.301 8.19118 22.088 6.90918 21.348C5.62718 20.608 5.32418 18.508 5.90018 15.868C3.32618 15.049 1.65918 13.735 1.65918 12.255C1.65918 10.775 3.32618 9.462 5.90018 8.641C5.32418 6.002 5.62718 3.901 6.90918 3.161C8.19118 2.421 10.1622 3.209 12.1592 5.028C14.1562 3.209 16.1272 2.422 17.4092 3.162C18.6912 3.902 18.9942 6.002 18.4182 8.642C20.9922 9.461 22.6592 10.775 22.6592 12.255C22.6592 13.735 20.9922 15.048 18.4182 15.869H18.4172ZM11.0972 6.09C10.8429 5.85981 10.5783 5.64125 10.3042 5.435C9.02718 4.48 8.06218 4.228 7.65918 4.461C7.25618 4.693 6.99218 5.655 7.18018 7.238C7.22018 7.565 7.27618 7.904 7.35018 8.254C8.10471 8.08874 8.8679 7.96588 9.63618 7.886C10.1112 7.233 10.6012 6.632 11.0982 6.09H11.0972ZM14.6822 7.886C15.4842 7.97 16.2502 8.095 16.9672 8.254C17.0422 7.904 17.0992 7.564 17.1372 7.238C17.3272 5.655 17.0622 4.693 16.6592 4.461C16.2562 4.228 15.2912 4.48 14.0142 5.435C13.7398 5.64123 13.4748 5.85979 13.2202 6.09C13.7172 6.632 14.2072 7.233 14.6822 7.886ZM12.6872 7.761C12.5122 7.551 12.3362 7.347 12.1592 7.152C11.9822 7.347 11.8062 7.55 11.6312 7.761C11.9831 7.75353 12.3352 7.75353 12.6872 7.761ZM8.53118 14.959C8.34874 14.6581 8.1727 14.3534 8.00318 14.045C7.90818 14.302 7.82018 14.555 7.74018 14.806C7.99718 14.862 8.26118 14.913 8.53018 14.959H8.53118ZM10.4632 15.193C11.5923 15.2769 12.7261 15.2769 13.8552 15.193C14.4924 14.257 15.0593 13.2749 15.5512 12.255C15.0593 11.2351 14.4924 10.2531 13.8552 9.317C12.7261 9.23314 11.5923 9.23314 10.4632 9.317C9.82598 10.2531 9.25909 11.2351 8.76718 12.255C9.25909 13.2749 9.82598 14.257 10.4632 15.193ZM16.3152 10.465C16.4102 10.208 16.4982 9.955 16.5782 9.704C16.316 9.64712 16.0526 9.5961 15.7882 9.551C15.9703 9.85191 16.146 10.1566 16.3152 10.465ZM6.28918 10.092C5.94918 10.202 5.62718 10.322 5.32518 10.452C3.86018 11.08 3.15918 11.79 3.15918 12.255C3.15918 12.72 3.85918 13.43 5.32518 14.058C5.62718 14.188 5.94918 14.308 6.28918 14.418C6.51118 13.718 6.78618 12.992 7.11418 12.255C6.799 11.55 6.52357 10.8278 6.28918 10.092ZM7.73918 9.704C7.82018 9.954 7.90818 10.208 8.00318 10.464C8.17271 10.156 8.34875 9.85157 8.53118 9.551C8.26118 9.597 7.99718 9.648 7.74018 9.704H7.73918ZM18.0292 14.418C18.3692 14.308 18.6912 14.188 18.9932 14.058C20.4582 13.43 21.1592 12.72 21.1592 12.255C21.1592 11.79 20.4592 11.08 18.9932 10.452C18.6774 10.3175 18.3558 10.1974 18.0292 10.092C17.8072 10.792 17.5322 11.518 17.2042 12.255C17.5322 12.992 17.8072 13.717 18.0292 14.418ZM16.5792 14.806C16.4982 14.556 16.4102 14.302 16.3152 14.046C16.1456 14.354 15.9696 14.6584 15.7872 14.959C16.0572 14.913 16.3212 14.862 16.5782 14.806H16.5792Z" fill="#607B96"/>
</g>
<defs>
<clipPath id="clip0_31_124">
<rect width="24" height="24" fill="white" transform="translate(0.15918 0.255005)"/>
</clipPath>
</defs>
</svg>
