<svg width="25" height="24" viewBox="0 0 25 24" fill="none" xmlns="http://www.w3.org/2000/svg">
<g clip-path="url(#clip0_2807_58)">
<path d="M12.3115 2C6.81152 2 2.31152 6.5 2.31152 12C2.31152 17.5 6.81152 22 12.3115 22C17.8115 22 22.3115 17.5 22.3115 12C22.3115 6.5 17.8115 2 12.3115 2ZM6.74052 17.571C5.24052 16.071 4.45452 14.071 4.45452 12.143L12.2405 19.857C10.2405 19.786 8.24052 19.071 6.74052 17.571ZM14.0255 19.643L4.66852 10.286C5.45452 6.786 8.59752 4.143 12.3115 4.143C14.9545 4.143 17.2405 5.429 18.6685 7.357L17.5975 8.286C16.3815 6.643 14.4545 5.57 12.3115 5.57C9.52552 5.57 7.16852 7.356 6.24052 9.856L14.4545 18.07C16.5255 17.356 18.0975 15.57 18.5975 13.428H15.1685V12H20.1685C20.1685 15.714 17.5255 18.857 14.0255 19.643Z" fill="#607B96"/>
</g>
<defs>
<clipPath id="clip0_2807_58">
<rect width="24" height="24" fill="white" transform="translate(0.311523)"/>
</clipPath>
</defs>
</svg>
