<svg width="51" height="30" viewBox="0 0 51 30" fill="none" xmlns="http://www.w3.org/2000/svg">
<path d="M8.96094 1.46356H42.0396C46.1817 1.46356 49.5396 4.82143 49.5396 8.96356V21.6547C49.5396 25.7969 46.1817 29.1547 42.0396 29.1547H8.96094C4.81881 29.1547 1.46094 25.7969 1.46094 21.6547V8.96356C1.46094 4.82143 4.8188 1.46356 8.96094 1.46356Z" fill="#010C15"/>
<path d="M25.5 12.3091L29.75 18.3091H21.25L25.5 12.3091Z" fill="white"/>
<path d="M8.96094 1.46356H42.0396C46.1817 1.46356 49.5396 4.82143 49.5396 8.96356V21.6547C49.5396 25.7969 46.1817 29.1547 42.0396 29.1547H8.96094C4.81881 29.1547 1.46094 25.7969 1.46094 21.6547V8.96356C1.46094 4.82143 4.8188 1.46356 8.96094 1.46356Z" stroke="#1E2D3D"/>
</svg>
